<?xml version="1.0" encoding="iso-8859-1"?>
<!-- Generator: Adobe Illustrator 19.0.0, SVG Export Plug-In . SVG Version: 6.00 Build 0)  -->
<svg xmlns="http://www.w3.org/2000/svg" xmlns:xlink="http://www.w3.org/1999/xlink" version="1.1" id="Capa_1" x="0px" y="0px" viewBox="0 0 512.001 512.001" style="enable-background:new 0 0 512.001 512.001;" xml:space="preserve" width="512px" height="512px">
<g>
	<g>
		<path d="M111.001,127.942c-5.834,0-10.568,4.735-10.568,10.568c0,5.834,4.735,10.568,10.568,10.568    c5.844,0,10.568-4.735,10.568-10.568C121.57,132.677,116.846,127.942,111.001,127.942z" fill="#0003DF"/>
	</g>
</g>
<g>
	<g>
		<path d="M95.117,107.68L68.125,80.54c-4.116-4.139-10.807-4.157-14.946-0.04c-4.139,4.116-4.158,10.807-0.04,14.946l26.992,27.14    c2.065,2.077,4.778,3.116,7.493,3.116c2.695,0,5.391-1.025,7.453-3.075C99.215,118.51,99.234,111.819,95.117,107.68z" fill="#0003DF"/>
	</g>
</g>
<g>
	<g>
		<path d="M508.715,420.266l-78.368-78.811c7.68-37.391-3.926-76.67-31.06-103.803l-24.301-24.291    c-12.031-12.049-31.736-12.466-43.92-0.927c-2.769,2.619-4.989,5.655-6.616,8.972l-35.767-35.766    c3.315-1.626,6.353-3.848,8.973-6.617c11.531-12.191,11.115-31.893-0.923-43.914l-24.299-24.311    c-27.141-27.129-66.425-38.739-103.821-31.058L91.969,3.094c-4.128-4.126-10.818-4.126-14.947,0L3.306,76.81    c-4.119,4.12-4.128,10.797-0.02,14.927l76.598,77c-7.544,37.286,4.089,76.441,31.125,103.477l62.259,62.259    c0.483,0.483,0.993,0.942,1.509,1.393c0.259,0.33,0.534,0.65,0.837,0.954l43.924,43.923l18.336,18.336    c14.151,14.152,31.796,24.358,51.026,29.518c9.691,2.6,19.684,3.901,29.681,3.901c7.237,0,14.474-0.692,21.598-2.058l79.92,78.532    c2.057,2.021,4.733,3.03,7.407,3.03c2.706,0,5.41-1.034,7.473-3.096l73.715-73.715    C512.813,431.071,512.823,424.396,508.715,420.266z M202.546,319.525c-3.491,3.494-9.124,3.943-13.122,1.036    c-0.434-0.314-0.844-0.663-1.216-1.036l-62.259-62.259c-23.205-23.212-32.495-57.392-24.238-89.203    c0.023-0.09,0.035-0.179,0.055-0.268c0.044-0.191,0.086-0.383,0.118-0.576c0.03-0.168,0.053-0.336,0.074-0.505    c0.02-0.164,0.038-0.327,0.051-0.49c0.015-0.192,0.024-0.385,0.029-0.576c0.003-0.143,0.003-0.285,0.001-0.428    c-0.003-0.203-0.013-0.406-0.027-0.607c-0.011-0.138-0.024-0.277-0.04-0.415c-0.022-0.196-0.05-0.39-0.082-0.583    c-0.025-0.151-0.057-0.301-0.089-0.451c-0.038-0.173-0.078-0.346-0.125-0.517c-0.045-0.17-0.097-0.337-0.152-0.505    c-0.049-0.148-0.098-0.294-0.152-0.44c-0.068-0.182-0.143-0.36-0.22-0.539c-0.057-0.13-0.115-0.259-0.178-0.386    c-0.088-0.179-0.181-0.355-0.279-0.531c-0.072-0.127-0.145-0.253-0.222-0.377c-0.098-0.16-0.202-0.317-0.31-0.473    c-0.096-0.14-0.197-0.276-0.3-0.411c-0.1-0.13-0.202-0.259-0.309-0.386c-0.13-0.154-0.266-0.303-0.405-0.451    c-0.06-0.063-0.113-0.132-0.175-0.195L25.707,84.303l58.788-58.788l73.312,73.312c0.068,0.068,0.143,0.126,0.211,0.191    c0.148,0.139,0.297,0.278,0.452,0.409c0.128,0.108,0.258,0.209,0.39,0.31c0.135,0.104,0.271,0.205,0.41,0.301    c0.156,0.109,0.315,0.21,0.476,0.309c0.126,0.077,0.252,0.152,0.379,0.224c0.174,0.097,0.351,0.188,0.528,0.276    c0.129,0.062,0.258,0.123,0.388,0.18c0.178,0.077,0.355,0.15,0.536,0.217c0.146,0.055,0.293,0.106,0.441,0.154    c0.166,0.054,0.332,0.104,0.5,0.149c0.171,0.047,0.344,0.088,0.517,0.126c0.149,0.033,0.299,0.061,0.449,0.088    c0.192,0.033,0.385,0.061,0.58,0.083c0.139,0.016,0.279,0.029,0.418,0.039c0.2,0.015,0.401,0.025,0.602,0.029    c0.145,0.002,0.29,0.001,0.434-0.002c0.19-0.004,0.379-0.012,0.571-0.027c0.169-0.013,0.337-0.033,0.505-0.054    c0.164-0.021,0.328-0.042,0.491-0.071c0.202-0.035,0.403-0.079,0.602-0.127c0.092-0.021,0.183-0.034,0.275-0.057    c31.909-8.388,66.214,0.873,89.52,24.168l24.302,24.314c4.017,4.013,4.246,10.49,0.51,14.439    c-1.889,1.996-4.437,3.126-7.173,3.181c-2.784,0.034-5.33-0.968-7.288-2.88c-0.052-0.05-0.105-0.099-0.156-0.148l-1.767-1.778    c-0.007-0.007-0.016-0.014-0.023-0.021c-0.003-0.003-0.006-0.007-0.011-0.011l-4.407-4.395c-0.003-0.003-0.005-0.007-0.01-0.011    l-18.959-18.97c-4.126-4.129-10.818-4.131-14.947-0.004c-4.128,4.126-4.13,10.817-0.004,14.947l18.959,18.97    c0.004,0.003,0.007,0.006,0.012,0.011l4.388,4.376c0.003,0.003,0.005,0.006,0.008,0.009l1.854,1.855    c0.036,0.036,0.065,0.076,0.102,0.111c0.072,0.071,0.14,0.133,0.208,0.199l14.356,14.366c0.035,0.035,0.074,0.065,0.109,0.098    l48.116,48.115c0.04,0.041,0.074,0.087,0.114,0.127l14.638,14.637c0.001,0.001,0.003,0.002,0.004,0.004    c0.005,0.004,0.01,0.01,0.014,0.015l1.752,1.743c0.062,0.067,0.125,0.133,0.19,0.199c1.858,1.898,2.881,4.41,2.881,7.075    c0,2.707-1.059,5.258-2.967,7.17c-3.962,3.959-10.403,3.956-14.354,0.005l-70.079-70.081c-0.003-0.003-0.007-0.006-0.011-0.01    l-11.256-11.255c-4.126-4.126-10.819-4.127-14.946,0.001c-4.127,4.127-4.127,10.818,0.001,14.946l11.255,11.254    c0.003,0.003,0.006,0.007,0.01,0.011l70.069,70.069c0.003,0.003,0.006,0.007,0.01,0.011c1.916,1.916,2.972,4.464,2.972,7.175    c0,2.706-1.059,5.257-2.972,7.174c-3.952,3.955-10.392,3.951-14.346,0.004l-65.647-65.647l-4.419-4.427    c-0.002-0.002-0.004-0.003-0.006-0.005c-0.002-0.002-0.003-0.004-0.005-0.006l-11.277-11.266    c-4.129-4.127-10.822-4.123-14.946,0.007c-4.125,4.128-4.122,10.82,0.007,14.946l11.276,11.265l54.334,54.341    c0.014,0.014,0.025,0.03,0.039,0.043c1.922,1.922,2.981,4.469,2.981,7.174s-1.059,5.253-2.981,7.175    c-3.898,3.899-10.284,3.943-14.237,0.105c-0.057-0.055-0.112-0.109-0.17-0.162l-47.012-47.022    c-0.002-0.002-0.005-0.004-0.008-0.007s-0.005-0.005-0.007-0.008l-7.282-7.281c-4.121-4.131-10.814-4.14-14.946-0.018    c-4.132,4.122-4.141,10.814-0.018,14.946l7.309,7.31l20.826,20.827c0.035,0.036,0.064,0.075,0.099,0.11    c1.911,1.906,2.962,4.449,2.962,7.165C205.518,315.061,204.464,317.61,202.546,319.525z M427.441,486.551l-76.516-75.188    c-0.047-0.045-0.098-0.085-0.145-0.129c-0.143-0.134-0.29-0.263-0.439-0.389c-0.127-0.108-0.253-0.213-0.383-0.314    c-0.13-0.099-0.263-0.193-0.397-0.286c-0.156-0.11-0.314-0.219-0.474-0.319c-0.117-0.073-0.238-0.139-0.358-0.207    c-0.181-0.102-0.36-0.204-0.545-0.295c-0.119-0.059-0.242-0.111-0.364-0.165c-0.187-0.083-0.373-0.166-0.563-0.238    c-0.143-0.054-0.287-0.099-0.432-0.147c-0.171-0.056-0.342-0.114-0.516-0.162c-0.178-0.049-0.357-0.087-0.537-0.126    c-0.145-0.032-0.29-0.067-0.435-0.091c-0.204-0.036-0.41-0.06-0.617-0.083c-0.128-0.015-0.256-0.032-0.384-0.042    c-0.21-0.016-0.422-0.021-0.633-0.024c-0.133-0.002-0.265-0.006-0.398-0.004c-0.194,0.004-0.389,0.018-0.584,0.033    c-0.159,0.012-0.317,0.024-0.475,0.043c-0.166,0.02-0.332,0.048-0.499,0.076c-0.19,0.033-0.38,0.068-0.57,0.111    c-0.064,0.015-0.128,0.021-0.191,0.037c-31.963,7.893-64.922-1.269-88.163-24.511l-18.336-18.336l-25.334-25.333    c3.016-1.49,5.843-3.484,8.349-5.989c2.481-2.482,4.487-5.31,5.988-8.371l2.335,2.335l2.887,2.898    c0.096,0.096,0.193,0.187,0.29,0.28l4.14,4.139c2.064,2.063,4.768,3.094,7.472,3.094c0.087,0,0.173-0.011,0.261-0.013    c3.223,1.071,6.591,1.609,9.958,1.609c8.028-0.001,16.053-3.042,22.122-9.109c2.694-2.694,4.83-5.795,6.364-9.158    c5.035,3.126,10.767,4.698,16.505,4.698c8.013,0,16.029-3.051,22.129-9.151c5.452-5.466,8.634-12.584,9.09-20.212    c3.448-0.211,6.867-0.988,10.107-2.332c-2.754,7.532-4.2,15.566-4.2,23.824c0,18.495,7.202,35.879,20.282,48.952    c2.064,2.062,4.767,3.093,7.471,3.093c2.706,0,5.411-1.034,7.475-3.098c4.126-4.128,4.124-10.82-0.004-14.947    c-9.085-9.079-14.088-21.156-14.088-34.002c0-12.848,5.003-24.927,14.107-34.029l2.451-2.462c4.112-4.13,4.104-10.81-0.019-14.931    l-18.969-18.96c-0.553-0.553-1.155-1.025-1.788-1.43c-0.68-0.875-1.404-1.723-2.181-2.531c-0.189-0.206-0.349-0.369-0.465-0.483    l-1.75-1.741l-0.053-0.056c-0.038-0.041-0.078-0.08-0.117-0.12c-0.003-0.003-0.006-0.007-0.01-0.012    c-1.912-1.959-2.933-4.548-2.879-7.288c0.055-2.736,1.184-5.284,3.184-7.176c3.944-3.737,10.419-3.506,14.441,0.519l24.305,24.296    c23.296,23.295,32.557,57.585,24.17,89.494c-4.16,15.84-12.517,30.378-24.172,42.041c-4.126,4.128-4.124,10.82,0.005,14.946    c2.063,2.062,4.766,3.093,7.47,3.093c2.707,0,5.412-1.034,7.475-3.099c10.091-10.097,18.158-21.962,23.833-34.907l63.172,63.529    L427.441,486.551z" fill="#0003DF"/>
	</g>
</g>
<g>
</g>
<g>
</g>
<g>
</g>
<g>
</g>
<g>
</g>
<g>
</g>
<g>
</g>
<g>
</g>
<g>
</g>
<g>
</g>
<g>
</g>
<g>
</g>
<g>
</g>
<g>
</g>
<g>
</g>
</svg>
